# xmcd CD database file
#
# Track frame offsets:
#	150
#	15043
#	28113
#	41199
#	54342
#	67271
#	83175
#	98162
#	113192
#	127142
#	140982
#	157531
#	170564
#	183214
#	196759
#
# Disc length: 2824 seconds
#
# Revision: 0
# Processed by: cddbd v1.5.2PL0 Copyright (c) Steve Scherf et al.
# Submitted via: CDex 1.51
#
DISCID=c70b060f
DTITLE=Various Artist - Boleros Vol. 3
DYEAR=2006
DGENRE=Jazz
TTITLE0=Tito Rodriguez - Si Mi Corazon Pudiera
TTITLE1=Los Panchos Con Mari Trini - Si Tu Me Dices Ven
TTITLE2=Olga Chorens - Mis Noches Sin Ti
TTITLE3=Boleros Bengalies - Contigo Aprendi
TTITLE4=Antonio Machin - Dos Gardenias
TTITLE5=Paula Monsalve - Mientras Existas Tu
TTITLE6=Lucho Gatica - Contigo En La Distancia
TTITLE7=Nati Mistral - Dos Cruces
TTITLE8=Hermanos Michel - Corazon Corazon
TTITLE9=Ramon Aguirre - Una Cita De Amor
TTITLE10=Trio Siboney - El Dia Que Me Quieras
TTITLE11=Boleros Bengalies - Solamente Una Vez
TTITLE12=Vicentico Valdes - Has Vuelto A Mi
TTITLE13=Bobby Capo - Ella Ella
TTITLE14=Son Boleros - Repetidamente
EXTD=YEAR: 2006
EXTT0=
EXTT1=
EXTT2=
EXTT3=
EXTT4=
EXTT5=
EXTT6=
EXTT7=
EXTT8=
EXTT9=
EXTT10=
EXTT11=
EXTT12=
EXTT13=
EXTT14=
PLAYORDER=
